<mxfile host="Electron" modified="2025-08-13T05:48:08.666Z" agent="Mozilla/5.0 (Windows NT 10.0; Win64; x64) AppleWebKit/537.36 (KHTML, like Gecko) draw.io/21.5.0 Chrome/112.0.5615.204 Electron/24.5.1 Safari/537.36" etag="-XkeEVZ26EjGU4fDmsVa" version="21.5.0" type="device">
  <diagram name="Page-1" id="FgBp9Bv5czjPE0wI_xVQ">
    <mxGraphModel dx="11260" dy="7060" grid="1" gridSize="10" guides="1" tooltips="1" connect="1" arrows="1" fold="1" page="1" pageScale="1" pageWidth="850" pageHeight="1100" math="0" shadow="0">
      <root>
        <mxCell id="0" />
        <mxCell id="1" parent="0" />
        <mxCell id="ERyDzxPQt0Ca88n98uUy-433" value="&lt;span style=&quot;font-size: 90px;&quot;&gt;Sophali Ordering Workflow&lt;/span&gt;" style="swimlane;childLayout=stackLayout;resizeParent=1;resizeParentMax=0;startSize=250;html=1;" parent="1" vertex="1">
          <mxGeometry x="-1160" y="-210" width="2660" height="3260" as="geometry">
            <mxRectangle x="-1570" y="170" width="70" height="30" as="alternateBounds" />
          </mxGeometry>
        </mxCell>
        <mxCell id="ERyDzxPQt0Ca88n98uUy-434" value="&lt;h1&gt;&lt;font style=&quot;font-size: 50px;&quot;&gt;End User&lt;/font&gt;&lt;/h1&gt;" style="swimlane;startSize=80;html=1;dashed=1;dashPattern=1 4;" parent="ERyDzxPQt0Ca88n98uUy-433" vertex="1">
          <mxGeometry y="250" width="1060" height="3010" as="geometry">
            <mxRectangle y="20" width="120" height="1810" as="alternateBounds" />
          </mxGeometry>
        </mxCell>
        <mxCell id="ERyDzxPQt0Ca88n98uUy-442" value="&lt;blockquote style=&quot;margin: 0 0 0 40px; border: none; padding: 0px;&quot;&gt;&lt;span style=&quot;text-align: left; background-color: initial;&quot;&gt;&lt;font style=&quot;font-size: 50px;&quot;&gt;1.select Items&lt;/font&gt;&lt;/span&gt;&lt;br&gt;&lt;/blockquote&gt;" style="rounded=1;arcSize=10;whiteSpace=wrap;html=1;align=center;fillColor=#1ba1e2;strokeColor=#006EAF;fontColor=#ffffff;" parent="ERyDzxPQt0Ca88n98uUy-434" vertex="1">
          <mxGeometry x="40" y="120" width="440" height="90" as="geometry" />
        </mxCell>
        <mxCell id="ERyDzxPQt0Ca88n98uUy-468" value="&lt;font style=&quot;font-size: 50px;&quot;&gt;Eat now&lt;/font&gt;" style="strokeWidth=2;html=1;shape=mxgraph.flowchart.terminator;whiteSpace=wrap;fillColor=#1ba1e2;strokeColor=#006EAF;fontColor=#ffffff;" parent="ERyDzxPQt0Ca88n98uUy-434" vertex="1">
          <mxGeometry x="480" y="240" width="260" height="80" as="geometry" />
        </mxCell>
        <mxCell id="ERyDzxPQt0Ca88n98uUy-483" style="edgeStyle=orthogonalEdgeStyle;rounded=0;orthogonalLoop=1;jettySize=auto;html=1;exitX=1;exitY=0.5;exitDx=0;exitDy=0;exitPerimeter=0;shape=flexArrow;endWidth=80;endSize=8.142857142857144;strokeWidth=3;" parent="ERyDzxPQt0Ca88n98uUy-434" source="ERyDzxPQt0Ca88n98uUy-469" target="ERyDzxPQt0Ca88n98uUy-504" edge="1">
          <mxGeometry relative="1" as="geometry">
            <mxPoint x="840" y="750" as="targetPoint" />
            <Array as="points">
              <mxPoint x="1470" y="600" />
              <mxPoint x="1470" y="750" />
            </Array>
          </mxGeometry>
        </mxCell>
        <mxCell id="ERyDzxPQt0Ca88n98uUy-469" value="&lt;font style=&quot;font-size: 50px;&quot;&gt;Eat Later&lt;/font&gt;" style="strokeWidth=2;html=1;shape=mxgraph.flowchart.terminator;whiteSpace=wrap;fillColor=#1ba1e2;strokeColor=#006EAF;fontColor=#ffffff;" parent="ERyDzxPQt0Ca88n98uUy-434" vertex="1">
          <mxGeometry x="480" y="560" width="260" height="80" as="geometry" />
        </mxCell>
        <mxCell id="ERyDzxPQt0Ca88n98uUy-500" value="" style="endArrow=classic;html=1;rounded=0;edgeStyle=elbowEdgeStyle;exitX=0.5;exitY=1;exitDx=0;exitDy=0;shape=flexArrow;endWidth=28.571428571428573;endSize=9.942857142857143;strokeWidth=3;" parent="ERyDzxPQt0Ca88n98uUy-434" source="ERyDzxPQt0Ca88n98uUy-442" edge="1">
          <mxGeometry width="50" height="50" relative="1" as="geometry">
            <mxPoint x="270" y="280" as="sourcePoint" />
            <mxPoint x="370" y="450" as="targetPoint" />
            <Array as="points">
              <mxPoint x="260" y="480" />
            </Array>
          </mxGeometry>
        </mxCell>
        <mxCell id="ERyDzxPQt0Ca88n98uUy-502" value="" style="shape=flexArrow;endArrow=classic;startArrow=classic;html=1;rounded=0;exitX=0;exitY=0.5;exitDx=0;exitDy=0;exitPerimeter=0;entryX=0;entryY=0.5;entryDx=0;entryDy=0;entryPerimeter=0;strokeWidth=3;" parent="ERyDzxPQt0Ca88n98uUy-434" source="ERyDzxPQt0Ca88n98uUy-469" target="ERyDzxPQt0Ca88n98uUy-468" edge="1">
          <mxGeometry width="100" height="100" relative="1" as="geometry">
            <mxPoint x="440" y="480" as="sourcePoint" />
            <mxPoint x="540" y="380" as="targetPoint" />
            <Array as="points">
              <mxPoint x="380" y="450" />
            </Array>
          </mxGeometry>
        </mxCell>
        <mxCell id="ERyDzxPQt0Ca88n98uUy-504" value="&lt;font style=&quot;font-size: 50px;&quot;&gt;Store in Purchased Items&lt;/font&gt;" style="shape=cube;whiteSpace=wrap;html=1;boundedLbl=1;backgroundOutline=1;darkOpacity=0.05;darkOpacity2=0.1;fillColor=#1ba1e2;strokeColor=#006EAF;fontColor=#ffffff;" parent="ERyDzxPQt0Ca88n98uUy-434" vertex="1">
          <mxGeometry x="60" y="680" width="910" height="150" as="geometry" />
        </mxCell>
        <mxCell id="ERyDzxPQt0Ca88n98uUy-507" value="&lt;span style=&quot;font-size: 50px;&quot;&gt;Gift Item&lt;/span&gt;" style="labelPosition=center;verticalLabelPosition=middle;align=center;html=1;shape=mxgraph.basic.button;dx=10;whiteSpace=wrap;fillColor=#1ba1e2;strokeColor=#006EAF;fontColor=#ffffff;" parent="ERyDzxPQt0Ca88n98uUy-434" vertex="1">
          <mxGeometry x="110" y="960" width="360" height="150" as="geometry" />
        </mxCell>
        <mxCell id="ERyDzxPQt0Ca88n98uUy-511" value="" style="shape=flexArrow;endArrow=classic;html=1;rounded=0;entryX=0.519;entryY=0.002;entryDx=0;entryDy=0;entryPerimeter=0;exitX=0;exitY=0;exitDx=465;exitDy=150;exitPerimeter=0;strokeWidth=3;" parent="ERyDzxPQt0Ca88n98uUy-434" source="ERyDzxPQt0Ca88n98uUy-504" target="ERyDzxPQt0Ca88n98uUy-507" edge="1">
          <mxGeometry width="50" height="50" relative="1" as="geometry">
            <mxPoint x="510" y="910" as="sourcePoint" />
            <mxPoint x="560" y="860" as="targetPoint" />
          </mxGeometry>
        </mxCell>
        <mxCell id="ERyDzxPQt0Ca88n98uUy-512" value="" style="shape=flexArrow;endArrow=classic;html=1;rounded=0;exitX=0;exitY=0;exitDx=465;exitDy=150;exitPerimeter=0;entryX=0.5;entryY=0;entryDx=0;entryDy=0;strokeWidth=3;" parent="ERyDzxPQt0Ca88n98uUy-434" source="ERyDzxPQt0Ca88n98uUy-504" target="ERyDzxPQt0Ca88n98uUy-513" edge="1">
          <mxGeometry width="50" height="50" relative="1" as="geometry">
            <mxPoint x="668" y="900" as="sourcePoint" />
            <mxPoint x="790" y="930" as="targetPoint" />
          </mxGeometry>
        </mxCell>
        <mxCell id="ERyDzxPQt0Ca88n98uUy-514" style="edgeStyle=orthogonalEdgeStyle;rounded=0;orthogonalLoop=1;jettySize=auto;html=1;exitX=0.5;exitY=1;exitDx=0;exitDy=0;shape=arrow;entryX=0.5;entryY=0;entryDx=0;entryDy=0;strokeWidth=4;dashed=1;dashPattern=1 1;" parent="ERyDzxPQt0Ca88n98uUy-434" source="ERyDzxPQt0Ca88n98uUy-513" target="ERyDzxPQt0Ca88n98uUy-515" edge="1">
          <mxGeometry relative="1" as="geometry">
            <mxPoint x="830" y="1260" as="targetPoint" />
          </mxGeometry>
        </mxCell>
        <mxCell id="ERyDzxPQt0Ca88n98uUy-513" value="&lt;font style=&quot;font-size: 50px;&quot;&gt;Redeem Myself Later&lt;/font&gt;" style="shape=step;perimeter=stepPerimeter;whiteSpace=wrap;html=1;fixedSize=1;fillColor=#1ba1e2;strokeColor=#006EAF;fontColor=#ffffff;" parent="ERyDzxPQt0Ca88n98uUy-434" vertex="1">
          <mxGeometry x="590" y="960" width="450" height="150" as="geometry" />
        </mxCell>
        <mxCell id="ERyDzxPQt0Ca88n98uUy-515" value="&lt;blockquote style=&quot;text-align: left; margin: 0px 0px 0px 40px; border: none; padding: 0px;&quot;&gt;&lt;span style=&quot;font-size: 50px;&quot;&gt;T-code&lt;/span&gt;&lt;/blockquote&gt;" style="rounded=1;arcSize=10;whiteSpace=wrap;html=1;align=center;fillColor=#1ba1e2;strokeColor=#006EAF;fontColor=#ffffff;" parent="ERyDzxPQt0Ca88n98uUy-434" vertex="1">
          <mxGeometry x="687.5" y="1185" width="255" height="60" as="geometry" />
        </mxCell>
        <mxCell id="ERyDzxPQt0Ca88n98uUy-516" style="edgeStyle=orthogonalEdgeStyle;rounded=0;orthogonalLoop=1;jettySize=auto;html=1;exitX=0.486;exitY=1.015;exitDx=0;exitDy=0;shape=arrow;dashed=1;exitPerimeter=0;entryX=0.537;entryY=-0.017;entryDx=0;entryDy=0;entryPerimeter=0;strokeWidth=4;dashPattern=1 1;" parent="ERyDzxPQt0Ca88n98uUy-434" source="ERyDzxPQt0Ca88n98uUy-507" target="ERyDzxPQt0Ca88n98uUy-517" edge="1">
          <mxGeometry relative="1" as="geometry">
            <mxPoint x="279.9999999999999" y="1225" as="targetPoint" />
            <mxPoint x="279.9999999999999" y="1150" as="sourcePoint" />
            <Array as="points">
              <mxPoint x="285" y="1147" />
              <mxPoint x="278" y="1147" />
              <mxPoint x="278" y="1177" />
              <mxPoint x="287" y="1177" />
            </Array>
          </mxGeometry>
        </mxCell>
        <mxCell id="ERyDzxPQt0Ca88n98uUy-517" value="&lt;blockquote style=&quot;text-align: left; margin: 0px 0px 0px 40px; border: none; padding: 0px;&quot;&gt;&lt;span style=&quot;font-size: 50px;&quot;&gt;G-code&lt;/span&gt;&lt;/blockquote&gt;" style="rounded=1;arcSize=10;whiteSpace=wrap;html=1;align=center;fillColor=#1ba1e2;strokeColor=#006EAF;fontColor=#ffffff;" parent="ERyDzxPQt0Ca88n98uUy-434" vertex="1">
          <mxGeometry x="150" y="1185" width="255" height="60" as="geometry" />
        </mxCell>
        <mxCell id="ERyDzxPQt0Ca88n98uUy-535" value="" style="shape=flexArrow;endArrow=classic;html=1;rounded=0;entryX=0.25;entryY=0;entryDx=0;entryDy=0;exitX=0.5;exitY=1;exitDx=0;exitDy=0;strokeWidth=3;" parent="ERyDzxPQt0Ca88n98uUy-434" source="ERyDzxPQt0Ca88n98uUy-517" target="ERyDzxPQt0Ca88n98uUy-536" edge="1">
          <mxGeometry width="50" height="50" relative="1" as="geometry">
            <mxPoint x="498" y="1220" as="sourcePoint" />
            <mxPoint x="270" y="1350" as="targetPoint" />
          </mxGeometry>
        </mxCell>
        <mxCell id="ERyDzxPQt0Ca88n98uUy-536" value="&lt;font style=&quot;font-size: 50px;&quot;&gt;Friend Redeems Later&lt;/font&gt;" style="shape=document;whiteSpace=wrap;html=1;boundedLbl=1;fillColor=#1ba1e2;strokeColor=#006EAF;fontColor=#ffffff;" parent="ERyDzxPQt0Ca88n98uUy-434" vertex="1">
          <mxGeometry x="140" y="1345" width="560" height="125" as="geometry" />
        </mxCell>
        <mxCell id="ERyDzxPQt0Ca88n98uUy-539" value="&lt;blockquote style=&quot;margin: 0 0 0 40px; border: none; padding: 0px;&quot;&gt;&lt;span style=&quot;text-align: left; background-color: initial;&quot;&gt;&lt;font style=&quot;font-size: 50px;&quot;&gt;2. Redeem Later Flow&lt;/font&gt;&lt;/span&gt;&lt;br&gt;&lt;/blockquote&gt;" style="rounded=1;arcSize=10;whiteSpace=wrap;html=1;align=center;fillColor=#1ba1e2;strokeColor=#006EAF;fontColor=#ffffff;" parent="ERyDzxPQt0Ca88n98uUy-434" vertex="1">
          <mxGeometry x="20" y="1730" width="700" height="90" as="geometry" />
        </mxCell>
        <mxCell id="ERyDzxPQt0Ca88n98uUy-540" value="&lt;blockquote style=&quot;text-align: left; margin: 0px 0px 0px 40px; border: none; padding: 0px;&quot;&gt;&lt;span style=&quot;font-size: 50px;&quot;&gt;Add to Cart&lt;/span&gt;&lt;/blockquote&gt;" style="rounded=1;arcSize=10;whiteSpace=wrap;html=1;align=center;fillColor=#1ba1e2;strokeColor=#006EAF;fontColor=#ffffff;" parent="ERyDzxPQt0Ca88n98uUy-434" vertex="1">
          <mxGeometry x="130" y="1880" width="440" height="90" as="geometry" />
        </mxCell>
        <mxCell id="ERyDzxPQt0Ca88n98uUy-561" value="&lt;blockquote style=&quot;text-align: left; margin: 0px 0px 0px 40px; border: none; padding: 0px;&quot;&gt;&lt;span style=&quot;font-size: 50px;&quot;&gt;Add New Items&lt;/span&gt;&lt;/blockquote&gt;" style="rounded=1;arcSize=10;whiteSpace=wrap;html=1;align=center;fillColor=#1ba1e2;strokeColor=#006EAF;fontColor=#ffffff;" parent="ERyDzxPQt0Ca88n98uUy-434" vertex="1">
          <mxGeometry x="130" y="2040" width="440" height="90" as="geometry" />
        </mxCell>
        <mxCell id="ERyDzxPQt0Ca88n98uUy-562" value="&lt;span style=&quot;font-size: 50px;&quot;&gt;Gifted &amp;amp; Transferred items: $0&lt;/span&gt;" style="rounded=1;arcSize=10;whiteSpace=wrap;html=1;align=center;fillColor=#1ba1e2;strokeColor=#006EAF;fontColor=#ffffff;" parent="ERyDzxPQt0Ca88n98uUy-434" vertex="1">
          <mxGeometry x="10" y="2240" width="510" height="130" as="geometry" />
        </mxCell>
        <mxCell id="ERyDzxPQt0Ca88n98uUy-585" value="&lt;span style=&quot;font-size: 50px;&quot;&gt;New items: Charged&lt;/span&gt;" style="rounded=1;arcSize=10;whiteSpace=wrap;html=1;align=center;fillColor=#1ba1e2;strokeColor=#006EAF;fontColor=#ffffff;" parent="ERyDzxPQt0Ca88n98uUy-434" vertex="1">
          <mxGeometry x="570" y="2240" width="400" height="130" as="geometry" />
        </mxCell>
        <mxCell id="ERyDzxPQt0Ca88n98uUy-586" value="" style="shape=flexArrow;endArrow=classic;html=1;rounded=0;entryX=0.545;entryY=0;entryDx=0;entryDy=0;exitX=0.5;exitY=1;exitDx=0;exitDy=0;strokeWidth=3;entryPerimeter=0;" parent="ERyDzxPQt0Ca88n98uUy-434" source="ERyDzxPQt0Ca88n98uUy-539" target="ERyDzxPQt0Ca88n98uUy-540" edge="1">
          <mxGeometry width="50" height="50" relative="1" as="geometry">
            <mxPoint x="353.33000000000004" y="1820" as="sourcePoint" />
            <mxPoint x="355.33000000000004" y="1920" as="targetPoint" />
          </mxGeometry>
        </mxCell>
        <mxCell id="ERyDzxPQt0Ca88n98uUy-587" value="" style="shape=flexArrow;endArrow=classic;html=1;rounded=0;exitX=0.5;exitY=1;exitDx=0;exitDy=0;strokeWidth=3;" parent="ERyDzxPQt0Ca88n98uUy-434" edge="1">
          <mxGeometry width="50" height="50" relative="1" as="geometry">
            <mxPoint x="368.33000000000004" y="1970" as="sourcePoint" />
            <mxPoint x="370" y="2040" as="targetPoint" />
          </mxGeometry>
        </mxCell>
        <mxCell id="ERyDzxPQt0Ca88n98uUy-588" value="" style="shape=flexArrow;endArrow=classic;html=1;rounded=0;entryX=0.5;entryY=0;entryDx=0;entryDy=0;exitX=0.5;exitY=1;exitDx=0;exitDy=0;strokeWidth=3;" parent="ERyDzxPQt0Ca88n98uUy-434" target="ERyDzxPQt0Ca88n98uUy-562" edge="1">
          <mxGeometry width="50" height="50" relative="1" as="geometry">
            <mxPoint x="390" y="2130" as="sourcePoint" />
            <mxPoint x="392" y="2230" as="targetPoint" />
          </mxGeometry>
        </mxCell>
        <mxCell id="ERyDzxPQt0Ca88n98uUy-589" value="" style="shape=flexArrow;endArrow=classic;html=1;rounded=0;entryX=0.5;entryY=0;entryDx=0;entryDy=0;strokeWidth=3;" parent="ERyDzxPQt0Ca88n98uUy-434" target="ERyDzxPQt0Ca88n98uUy-585" edge="1">
          <mxGeometry width="50" height="50" relative="1" as="geometry">
            <mxPoint x="380" y="2130" as="sourcePoint" />
            <mxPoint x="562" y="2250" as="targetPoint" />
          </mxGeometry>
        </mxCell>
        <mxCell id="ERyDzxPQt0Ca88n98uUy-595" value="" style="shape=corner;whiteSpace=wrap;html=1;direction=north;strokeWidth=3;" parent="ERyDzxPQt0Ca88n98uUy-434" vertex="1">
          <mxGeometry x="270" y="2370" width="260" height="160" as="geometry" />
        </mxCell>
        <mxCell id="ERyDzxPQt0Ca88n98uUy-597" value="" style="shape=corner;whiteSpace=wrap;html=1;direction=west;strokeWidth=3;" parent="ERyDzxPQt0Ca88n98uUy-434" vertex="1">
          <mxGeometry x="530" y="2370" width="260" height="160" as="geometry" />
        </mxCell>
        <mxCell id="ERyDzxPQt0Ca88n98uUy-435" value="&lt;h1&gt;&lt;span style=&quot;font-size: 50px;&quot;&gt;Payment(Stripe Gateway)&lt;/span&gt;&lt;/h1&gt;" style="swimlane;startSize=80;html=1;" parent="ERyDzxPQt0Ca88n98uUy-433" vertex="1">
          <mxGeometry x="1060" y="250" width="620" height="3010" as="geometry" />
        </mxCell>
        <mxCell id="ERyDzxPQt0Ca88n98uUy-481" value="&lt;font style=&quot;font-size: 50px;&quot;&gt;Pay Now&lt;/font&gt;" style="whiteSpace=wrap;html=1;strokeWidth=2;fillColor=#008a00;strokeColor=#005700;fontColor=#ffffff;" parent="ERyDzxPQt0Ca88n98uUy-435" vertex="1">
          <mxGeometry x="120" y="370" width="280" height="140" as="geometry" />
        </mxCell>
        <mxCell id="ERyDzxPQt0Ca88n98uUy-486" value="" style="edgeStyle=none;orthogonalLoop=1;jettySize=auto;html=1;endArrow=classic;startArrow=classic;rounded=0;shape=flexArrow;strokeWidth=3;" parent="ERyDzxPQt0Ca88n98uUy-435" edge="1">
          <mxGeometry width="100" relative="1" as="geometry">
            <mxPoint x="259" y="370" as="sourcePoint" />
            <mxPoint x="259" y="280" as="targetPoint" />
            <Array as="points" />
          </mxGeometry>
        </mxCell>
        <mxCell id="ERyDzxPQt0Ca88n98uUy-503" value="" style="edgeStyle=none;orthogonalLoop=1;jettySize=auto;html=1;endArrow=classic;startArrow=classic;rounded=0;shape=flexArrow;strokeWidth=3;" parent="ERyDzxPQt0Ca88n98uUy-435" edge="1">
          <mxGeometry width="100" relative="1" as="geometry">
            <mxPoint x="250" y="600" as="sourcePoint" />
            <mxPoint x="250" y="510" as="targetPoint" />
            <Array as="points" />
          </mxGeometry>
        </mxCell>
        <mxCell id="ERyDzxPQt0Ca88n98uUy-482" value="" style="edgeStyle=orthogonalEdgeStyle;rounded=0;orthogonalLoop=1;jettySize=auto;html=1;entryX=0;entryY=0.5;entryDx=0;entryDy=0;shape=flexArrow;strokeWidth=3;" parent="ERyDzxPQt0Ca88n98uUy-433" source="ERyDzxPQt0Ca88n98uUy-468" target="ERyDzxPQt0Ca88n98uUy-454" edge="1">
          <mxGeometry relative="1" as="geometry">
            <mxPoint x="1790" y="400" as="targetPoint" />
          </mxGeometry>
        </mxCell>
        <mxCell id="ERyDzxPQt0Ca88n98uUy-436" value="&lt;span style=&quot;font-size: 50px;&quot;&gt;Merchant&lt;/span&gt;" style="swimlane;startSize=80;html=1;" parent="ERyDzxPQt0Ca88n98uUy-433" vertex="1">
          <mxGeometry x="1680" y="250" width="980" height="3010" as="geometry" />
        </mxCell>
        <mxCell id="ERyDzxPQt0Ca88n98uUy-492" style="edgeStyle=orthogonalEdgeStyle;rounded=0;orthogonalLoop=1;jettySize=auto;html=1;exitX=0.5;exitY=1;exitDx=0;exitDy=0;entryX=0.5;entryY=0;entryDx=0;entryDy=0;shape=flexArrow;strokeWidth=3;" parent="ERyDzxPQt0Ca88n98uUy-436" source="ERyDzxPQt0Ca88n98uUy-454" target="ERyDzxPQt0Ca88n98uUy-490" edge="1">
          <mxGeometry relative="1" as="geometry" />
        </mxCell>
        <mxCell id="ERyDzxPQt0Ca88n98uUy-454" value="&lt;font style=&quot;font-size: 50px;&quot;&gt;Send To KOB&lt;/font&gt;" style="whiteSpace=wrap;html=1;fillColor=#a20025;strokeColor=#6F0000;rounded=1;arcSize=10;fontColor=#ffffff;" parent="ERyDzxPQt0Ca88n98uUy-436" vertex="1">
          <mxGeometry x="250" y="245" width="550" height="70" as="geometry" />
        </mxCell>
        <mxCell id="ERyDzxPQt0Ca88n98uUy-493" style="edgeStyle=orthogonalEdgeStyle;rounded=0;orthogonalLoop=1;jettySize=auto;html=1;exitX=0.5;exitY=1;exitDx=0;exitDy=0;entryX=0.5;entryY=0;entryDx=0;entryDy=0;shape=flexArrow;strokeWidth=3;" parent="ERyDzxPQt0Ca88n98uUy-436" source="ERyDzxPQt0Ca88n98uUy-490" target="ERyDzxPQt0Ca88n98uUy-491" edge="1">
          <mxGeometry relative="1" as="geometry" />
        </mxCell>
        <mxCell id="ERyDzxPQt0Ca88n98uUy-490" value="&lt;font style=&quot;font-size: 50px;&quot;&gt;Prepared&lt;/font&gt;" style="whiteSpace=wrap;html=1;fillColor=#a20025;strokeColor=#6F0000;rounded=1;arcSize=10;fontColor=#ffffff;" parent="ERyDzxPQt0Ca88n98uUy-436" vertex="1">
          <mxGeometry x="250" y="360" width="550" height="70" as="geometry" />
        </mxCell>
        <mxCell id="ERyDzxPQt0Ca88n98uUy-491" value="&lt;font style=&quot;font-size: 50px;&quot;&gt;Pickup&lt;/font&gt;" style="whiteSpace=wrap;html=1;fillColor=#a20025;strokeColor=#6F0000;rounded=1;arcSize=10;fontColor=#ffffff;" parent="ERyDzxPQt0Ca88n98uUy-436" vertex="1">
          <mxGeometry x="250" y="470" width="550" height="70" as="geometry" />
        </mxCell>
        <mxCell id="ERyDzxPQt0Ca88n98uUy-604" value="&lt;span style=&quot;font-size: 50px;&quot;&gt;Send Full Order to KOB&lt;/span&gt;" style="whiteSpace=wrap;html=1;fillColor=#a20025;strokeColor=#6F0000;rounded=1;arcSize=10;fontColor=#ffffff;" parent="ERyDzxPQt0Ca88n98uUy-436" vertex="1">
          <mxGeometry x="200" y="2590" width="750" height="110" as="geometry" />
        </mxCell>
        <mxCell id="ERyDzxPQt0Ca88n98uUy-607" value="&lt;span style=&quot;font-size: 50px;&quot;&gt;KOB Prepares All Items&lt;/span&gt;" style="whiteSpace=wrap;html=1;fillColor=#a20025;strokeColor=#6F0000;rounded=1;arcSize=10;fontColor=#ffffff;" parent="ERyDzxPQt0Ca88n98uUy-436" vertex="1">
          <mxGeometry x="200" y="2790" width="750" height="110" as="geometry" />
        </mxCell>
        <mxCell id="ERyDzxPQt0Ca88n98uUy-609" value="" style="shape=flexArrow;endArrow=classic;html=1;rounded=0;exitX=0.5;exitY=1;exitDx=0;exitDy=0;strokeWidth=3;exitPerimeter=0;" parent="ERyDzxPQt0Ca88n98uUy-436" source="ERyDzxPQt0Ca88n98uUy-604" edge="1">
          <mxGeometry width="50" height="50" relative="1" as="geometry">
            <mxPoint x="573" y="2720" as="sourcePoint" />
            <mxPoint x="574.6700000000001" y="2790" as="targetPoint" />
          </mxGeometry>
        </mxCell>
        <mxCell id="ERyDzxPQt0Ca88n98uUy-603" style="edgeStyle=orthogonalEdgeStyle;rounded=0;orthogonalLoop=1;jettySize=auto;html=1;exitX=0;exitY=0;exitDx=260;exitDy=10;exitPerimeter=0;shape=flexArrow;endWidth=80;endSize=8.142857142857144;strokeWidth=3;entryX=0;entryY=0.455;entryDx=0;entryDy=0;entryPerimeter=0;" parent="ERyDzxPQt0Ca88n98uUy-433" source="ERyDzxPQt0Ca88n98uUy-597" target="ERyDzxPQt0Ca88n98uUy-604" edge="1">
          <mxGeometry relative="1" as="geometry">
            <mxPoint x="1700" y="2890" as="targetPoint" />
            <mxPoint x="200" y="2850" as="sourcePoint" />
            <Array as="points">
              <mxPoint x="530" y="2890" />
            </Array>
          </mxGeometry>
        </mxCell>
      </root>
    </mxGraphModel>
  </diagram>
</mxfile>
